<svg version="1.1" viewBox="0 0 104.69 107.58" xmlns="http://www.w3.org/2000/svg" xmlns:xlink="http://www.w3.org/1999/xlink" id="Layer_2" overflow="hidden"><defs></defs><g id="Layer_1-2"><path d=" M 88.26 49.49 C 89.21 53.06 92.46 55.7 96.33 55.7 C 100.94 55.7 104.69 51.95 104.69 47.34 C 104.69 42.73 100.94 38.98 96.33 38.98 C 92.46 38.98 89.21 41.62 88.26 45.19 L 55.38 45.19 L 55.38 36.69 L 78.34 36.69 L 78.34 23.56 C 82.03 22.69 84.78 19.38 84.78 15.43 C 84.78 10.82 81.03 7.07 76.42 7.07 C 71.81 7.07 68.06 10.82 68.06 15.43 C 68.06 19.21 70.59 22.42 74.04 23.44 L 74.04 32.38 L 55.38 32.38 L 55.38 11.93 C 55.37 11.84 55.34 11.76 55.34 11.67 C 55.55 8.94 53.25 7.59 53.25 7.59 L 40.98 0.29 C 40.32 -0.09 39.51 -0.09 38.85 0.29 L 13.78 15.56 C 13.15 15.95 12.77 16.65 12.78 17.39 L 12.78 32.73 L 1.09 39.35 C 0.42 39.73 0.01 40.43 -2.22045e-16 41.2 L -2.22045e-16 66.38 C 0.02 67.13 0.44 67.8 1.09 68.17 L 12.78 74.86 L 12.78 90.2 C 12.8 90.95 13.21 91.64 13.87 92.01 L 38.92 107.3 C 39.58 107.68 40.39 107.68 41.05 107.3 L 52.76 100.29 C 55.55 98.36 55.38 96.39 55.39 96.31 L 55.39 75.19 L 68.59 75.19 L 68.59 82.1 C 65.02 83.05 62.38 86.3 62.38 90.17 C 62.38 94.78 66.13 98.53 70.74 98.53 C 75.35 98.53 79.1 94.78 79.1 90.17 C 79.1 86.3 76.46 83.05 72.89 82.1 L 72.89 73.04 C 72.89 71.85 71.93 70.89 70.74 70.89 L 55.39 70.89 L 55.39 62.58 L 78 62.58 L 81.72 67.19 C 80.95 68.46 80.49 69.94 80.49 71.53 C 80.49 76.14 84.24 79.89 88.85 79.89 C 93.46 79.89 97.21 76.14 97.21 71.53 C 97.21 66.92 93.46 63.17 88.85 63.17 C 87.39 63.17 86.02 63.55 84.83 64.2 L 80.7 59.07 C 80.29 58.56 79.68 58.27 79.03 58.27 L 55.4 58.27 L 55.4 49.49 L 88.28 49.49 Z M 96.33 43.28 C 98.57 43.28 100.39 45.1 100.39 47.34 C 100.39 49.58 98.57 51.4 96.33 51.4 C 94.09 51.4 92.27 49.58 92.27 47.34 C 92.27 45.1 94.09 43.28 96.33 43.28 Z M 72.36 15.44 C 72.36 13.2 74.18 11.38 76.42 11.38 C 78.66 11.38 80.48 13.2 80.48 15.44 C 80.48 17.68 78.66 19.5 76.42 19.5 C 74.18 19.5 72.36 17.68 72.36 15.44 Z M 51.12 96.22 L 39.98 102.89 L 31.08 97.46 L 40.52 91.9 L 38.28 88.04 L 26.64 94.88 L 17.06 88.94 L 17.06 74.82 L 27.84 68.43 L 25.71 64.77 L 14.93 71.16 L 4.28 65.13 L 4.28 55.14 L 15.53 48.52 L 13.4 44.86 L 4.28 50.21 L 4.28 42.46 L 14.93 36.43 L 25.58 42.46 L 25.58 52.47 L 17.75 57.66 L 19.88 61.39 L 27.71 56.22 L 34.46 61.5 L 37.36 58.44 L 29.84 52.6 L 29.84 42.46 L 41.53 35.84 C 42.2 35.46 42.61 34.76 42.62 33.99 L 42.62 21.87 L 38.36 21.87 L 38.36 32.82 L 27.71 38.85 L 17.06 32.82 L 17.06 18.68 L 25.58 13.42 L 25.58 25.86 L 29.84 25.86 L 29.84 10.82 L 40 4.64 L 51.1 11.31 L 51.1 55.01 C 51.09 55.1 51.08 55.17 51.08 55.17 L 51.08 64.2 L 25.24 79.43 L 27.37 83.11 L 51.14 69.14 L 51.14 96.25 Z M 74.79 90.17 C 74.79 92.41 72.97 94.23 70.73 94.23 C 68.49 94.23 66.67 92.41 66.67 90.17 C 66.67 87.93 68.49 86.11 70.73 86.11 C 72.97 86.11 74.79 87.93 74.79 90.17 Z M 88.84 67.47 C 91.08 67.47 92.9 69.29 92.9 71.53 C 92.9 73.77 91.08 75.59 88.84 75.59 C 86.6 75.59 84.78 73.77 84.78 71.53 C 84.78 69.29 86.6 67.47 88.84 67.47 Z" stroke="none" stroke-width="0.301724" stroke-dasharray="" stroke-dashoffset="1" fill="#FFFFFF" fill-opacity="1"/></g></svg>